#!OML:ASF H:\BabyWalks\Project 1\Capture day 1\Session 1\baby.ASF
:FULLY-SPECIFIED
:DEGREES
1041
root -7.59449 15.1698 1.44378 482.569 -81.9316 -479.849
lowerback 28.9136 1.38125 -1.471
upperback 6.16825 0.81752 0.763408
thorax -9.05913 0.169039 1.45676
lowerneck -3.04243 1.70448 3.59519
upperneck -20.8047 1.3006 -2.1415
head -5.7395 0.168333 -1.30148
rclavicle 2.42517e-014 -1.59028e-015
rhumerus -26.4646 11.1302 -84.9496
rradius 55.1819
rwrist 9.59527
rhand -15.9001 -20.9875
rfingers 7.12502
rthumb 10.2965 -50.7155
lclavicle 2.42517e-014 -1.59028e-015
lhumerus -21.9071 -15.9123 81.2774
lradius 62.7377
lwrist 0.503621
lhand 7.17628 16.0701
lfingers 7.12502
lthumb 32.4435 43.1861
rfemur -42.4485 -28.2013 27.4426
rtibia 86.5167
rfoot -20.3473 5.991
rtoes -20.4026
lfemur -42.8452 23.4543 -14.7056
ltibia 80.9786
lfoot -36.677 -12.9782
ltoes -0.341847
1042
root -7.60781 15.3028 1.44257 481.888 -81.8559 -479.276
lowerback 28.6995 1.36329 -1.43861
upperback 6.04476 0.826655 0.784734
thorax -9.09377 0.181048 1.45837
lowerneck -3.0755 1.65745 3.56962
upperneck -20.5806 1.2719 -1.99391
head -5.66601 0.15435 -1.24796
rclavicle -5.96354e-015 -1.98785e-014
rhumerus -26.8119 10.5697 -84.9098
rradius 55.1356
rwrist 9.29883
rhand -15.8479 -21.0307
rfingers 7.12502
rthumb 10.3469 -50.7561
lclavicle -5.96354e-015 -1.98785e-014
lhumerus -22.2039 -15.4869 81.2282
lradius 62.6509
lwrist 0.695149
lhand 7.1973 15.9259
lfingers 7.12502
lthumb 32.4635 43.0378
rfemur -41.5195 -28 27.0719
rtibia 85.12
rfoot -18.942 7.04508
rtoes -20.3233
lfemur -41.6224 23.0474 -14.4797
ltibia 79.1161
lfoot -36.4524 -12.5923
ltoes -0.044031
1043
root -7.62087 15.4324 1.44128 481.225 -81.7821 -478.722
lowerback 28.4899 1.34338 -1.39689
upperback 5.92436 0.835077 0.805445
thorax -9.12644 0.192183 1.45417
lowerneck -3.11165 1.61069 3.53783
upperneck -20.3505 1.24357 -1.84346
head -5.59022 0.14109 -1.19266
rclavicle 1.03368e-014 2.22639e-014
rhumerus -27.1661 10.0792 -84.8527
rradius 55.1204
rwrist 8.92481
rhand -15.8359 -21.0961
rfingers 7.12502
rthumb 10.3585 -50.821
lclavicle 1.03368e-014 2.22639e-014
lhumerus -22.5088 -15.0657 81.1581
lradius 62.6041
lwrist 0.860918
lhand 7.18388 15.7861
lfingers 7.12502
lthumb 32.4507 42.9006
rfemur -40.6199 -27.8211 26.6873
rtibia 83.7589
rfoot -17.4508 8.14584
rtoes -20.1531
lfemur -40.4132 22.6473 -14.2696
ltibia 77.2638
lfoot -36.2172 -12.1786
ltoes 0.244985
1044
root -7.63382 15.5588 1.4398 480.504 -81.713 -478.11
lowerback 28.2857 1.31591 -1.34215
upperback 5.80448 0.837033 0.8266
thorax -9.16037 0.199819 1.44524
lowerneck -3.14635 1.5647 3.50518
upperneck -20.1113 1.21636 -1.69363
head -5.51185 0.128957 -1.13762
rclavicle 9.54166e-015 1.11319e-014
rhumerus -27.5296 9.6603 -84.7801
rradius 55.1262
rwrist 8.50242
rhand -15.83 -21.1769
rfingers 7.12502
rthumb 10.3641 -50.9015
lclavicle 9.54166e-015 1.11319e-014
lhumerus -22.8282 -14.6545 81.0692
lradius 62.5921
lwrist 1.03005
lhand 7.14416 15.6622
lfingers 7.12502
lthumb 32.4129 42.7844
rfemur -39.7428 -27.676 26.2957
rtibia 82.4293
rfoot -15.902 9.25861
rtoes -19.8537
lfemur -39.2189 22.2412 -14.0698
ltibia 75.4233
lfoot -35.9616 -11.7482
ltoes 0.543037
1045
root -7.64643 15.6816 1.43797 479.796 -81.6515 -477.51
lowerback 28.0816 1.28607 -1.28552
upperback 5.68805 0.835621 0.846779
thorax -9.18987 0.205509 1.43532
lowerneck -3.1911 1.51894 3.4771
upperneck -19.8612 1.18722 -1.55389
head -5.42836 0.116478 -1.08654
rclavicle -3.18055e-015 6.36111e-015
rhumerus -27.8924 9.30576 -84.6883
rradius 55.1432
rwrist 8.06619
rhand -15.8378 -21.2471
rfingers 7.12502
rthumb 10.3567 -50.9721
lclavicle -3.18055e-015 6.36111e-015
lhumerus -23.1531 -14.2596 80.9598
lradius 62.6094
lwrist 1.22464
lhand 7.09025 15.5569
lfingers 7.12502
lthumb 32.3616 42.6897
rfemur -38.8942 -27.5554 25.8952
rtibia 81.1308
rfoot -14.3306 10.3411
rtoes -19.4053
lfemur -38.0449 21.8363 -13.8895
ltibia 73.5973
lfoot -35.6854 -11.3014
ltoes 0.83286
1046
root -7.65894 15.801 1.43577 479.118 -81.6118 -476.94
lowerback 27.8749 1.25412 -1.23731
upperback 5.57607 0.827874 0.862178
thorax -9.21243 0.208076 1.42712
lowerneck -3.24382 1.47513 3.45813
upperneck -19.6007 1.15721 -1.43416
head -5.34017 0.104496 -1.04337
rclavicle -7.95139e-015 -2.38542e-015
rhumerus -28.2504 9.00884 -84.5757
rradius 55.16
rwrist 7.64019
rhand -15.8486 -21.2905
rfingers 7.12502
rthumb 10.3462 -51.0159
lclavicle -7.95139e-015 -2.38542e-015
lhumerus -23.484 -13.8881 80.8319
lradius 62.6506
lwrist 1.45002
lhand 7.00972 15.4703
lfingers 7.12502
lthumb 32.2849 42.6187
rfemur -38.0654 -27.463 25.469
rtibia 79.8603
rfoot -12.7919 11.3585
rtoes -18.8191
lfemur -36.8873 21.4277 -13.7423
ltibia 71.787
lfoot -35.3887 -10.8419
ltoes 1.11377
1047
root -7.67141 15.9169 1.43291 478.454 -81.5926 -476.381
lowerback 27.6607 1.21973 -1.19991
upperback 5.46663 0.813247 0.874452
thorax -9.22786 0.207488 1.42404
lowerneck -3.30101 1.43502 3.43202
upperneck -19.3309 1.13151 -1.317
head -5.24835 0.0956606 -1.00007
rclavicle -8.74653e-015 4.77083e-015
rhumerus -28.6048 8.7658 -84.4433
rradius 55.168
rwrist 7.24269
rhand -15.8626 -21.2934
rfingers 7.12502
rthumb 10.3327 -51.0196
lclavicle -8.74653e-015 4.77083e-015
lhumerus -23.8224 -13.5441 80.6857
lradius 62.7028
lwrist 1.69808
lhand 6.90111 15.3901
lfingers 7.12502
lthumb 32.1816 42.5595
rfemur -37.2532 -27.3902 25.0221
rtibia 78.613
rfoot -11.3643 12.2799
rtoes -18.1631
lfemur -35.7518 21.0136 -13.6251
ltibia 69.9942
lfoot -35.0649 -10.3747
ltoes 1.38082
1048
root -7.68349 16.0289 1.42895 477.841 -81.5854 -475.869
lowerback 27.4418 1.18885 -1.17446
upperback 5.35985 0.799256 0.886753
thorax -9.23771 0.207295 1.42762
lowerneck -3.38043 1.3985 3.39605
upperneck -19.0362 1.10955 -1.20187
head -5.14514 0.090083 -0.955854
rclavicle -5.1684e-015 -2.54444e-014
rhumerus -28.9526 8.56113 -84.285
rradius 55.1655
rwrist 6.89781
rhand -15.865 -21.2578
rfingers 7.12502
rthumb 10.3304 -50.9841
lclavicle -5.1684e-015 -2.54444e-014
lhumerus -24.165 -13.2316 80.5251
lradius 62.7632
lwrist 1.95877
lhand 6.76241 15.3142
lfingers 7.12502
lthumb 32.0495 42.5102
rfemur -36.4579 -27.3136 24.5653
rtibia 77.3836
rfoot -10.1125 13.0686
rtoes -17.5172
lfemur -34.6438 20.6018 -13.5281
ltibia 68.2237
lfoot -34.7147 -9.90495
ltoes 1.62745
1049
root -7.69548 16.1369 1.4238 477.273 -81.5939 -475.397
lowerback 27.208 1.16065 -1.16431
upperback 5.25729 0.784037 0.897741
thorax -9.23494 0.206702 1.43895
lowerneck -3.48021 1.36331 3.34335
upperneck -18.7208 1.08937 -1.07948
head -5.03246 0.086566 -0.906642
rclavicle -4.37326e-015 -2.06736e-014
rhumerus -29.2875 8.38875 -84.1004
rradius 55.1425
rwrist 6.62497
rhand -15.8409 -21.183
rfingers 7.12502
rthumb 10.3537 -50.9081
lclavicle -4.37326e-015 -2.06736e-014
lhumerus -24.5106 -12.9551 80.3484
lradius 62.8275
lwrist 2.21732
lhand 6.59057 15.2422
lfingers 7.12502
lthumb 31.8859 42.471
rfemur -35.6731 -27.2288 24.0953
rtibia 76.1644
rfoot -9.10137 13.6816
rtoes -17.0166
lfemur -33.5652 20.1864 -13.4535
ltibia 66.4772
lfoot -34.336 -9.43675
ltoes 1.841
1050
root -7.70717 16.241 1.41732 476.758 -81.6134 -474.969
lowerback 26.9622 1.13693 -1.16681
upperback 5.15549 0.771025 0.908516
thorax -9.22506 0.207421 1.45652
lowerneck -3.58001 1.32792 3.28575
upperneck -18.4024 1.06752 -0.963894
head -4.91906 0.0831407 -0.858893
rclavicle 3.97569e-016 3.18055e-015
rhumerus -29.6122 8.23769 -83.8888
rradius 55.0969
rwrist 6.43429
rhand -15.789 -21.0905
rfingers 7.12502
rthumb 10.4037 -50.8131
lclavicle 3.97569e-016 3.18055e-015
lhumerus -24.8593 -12.7173 80.1577
lradius 62.8898
lwrist 2.45988
lhand 6.37757 15.1601
lfingers 7.12502
lthumb 31.683 42.4291
rfemur -34.8986 -27.1222 23.6208
rtibia 74.9473
rfoot -8.37609 14.072
rtoes -16.7389
lfemur -32.5207 19.7704 -13.3944
ltibia 64.7572
lfoot -33.9253 -8.97766
ltoes 2.01032
1051
root -7.71855 16.3409 1.4094 476.294 -81.6421 -474.588
lowerback 26.7056 1.11724 -1.18364
upperback 5.05515 0.759198 0.919581
thorax -9.20778 0.208987 1.48221
lowerneck -3.69461 1.29666 3.2045
upperneck -18.0645 1.05276 -0.833379
head -4.79747 0.0844456 -0.802851
rclavicle 3.97569e-016 -1.27222e-014
rhumerus -29.9218 8.1071 -83.6518
rradius 55.0236
rwrist 6.31037
rhand -15.7024 -20.9766
rfingers 7.12502
rthumb 10.4872 -50.695
lclavicle 3.97569e-016 -1.27222e-014
lhumerus -25.2102 -12.5141 79.9507
lradius 62.9476
lwrist 2.67233
lhand 6.14684 15.0705
lfingers 7.12502
lthumb 31.4632 42.3826
rfemur -34.1283 -26.9866 23.1436
rtibia 73.7251
rfoot -7.95838 14.1912
rtoes -16.7169
lfemur -31.5078 19.352 -13.3456
ltibia 63.0689
lfoot -33.4876 -8.53205
ltoes 2.13179
